<mxfile host="app.diagrams.net" modified="2023-10-05T07:06:35.345Z" agent="Mozilla/5.0 (Windows NT 10.0; Win64; x64; rv:109.0) Gecko/20100101 Firefox/118.0" etag="UNdMJIYFL-m1kaJn3rk4" version="22.0.2" type="device">
  <diagram name="Page-1" id="HbEVi2vAyvE3F8dbHcFh">
    <mxGraphModel dx="4245" dy="936" grid="0" gridSize="10" guides="1" tooltips="1" connect="1" arrows="1" fold="1" page="1" pageScale="1" pageWidth="2336" pageHeight="1654" background="#000000" math="0" shadow="0">
      <root>
        <mxCell id="0" />
        <mxCell id="1" parent="0" />
        <mxCell id="9MMlaA8A-QYlj0_RRwK3-7" value="" style="edgeStyle=orthogonalEdgeStyle;rounded=0;orthogonalLoop=1;jettySize=auto;html=1;" edge="1" parent="1" source="xHarE6nuo0NC3B4JPIid-2" target="xHarE6nuo0NC3B4JPIid-5">
          <mxGeometry relative="1" as="geometry" />
        </mxCell>
        <mxCell id="xHarE6nuo0NC3B4JPIid-2" value="&lt;font color=&quot;#ffffff&quot;&gt;cliente&lt;/font&gt;" style="rounded=0;whiteSpace=wrap;html=1;fillColor=none;strokeColor=#FFFFFF;" parent="1" vertex="1">
          <mxGeometry x="573" y="120" width="120" height="80" as="geometry" />
        </mxCell>
        <mxCell id="xHarE6nuo0NC3B4JPIid-4" value="&lt;font color=&quot;#ffffff&quot;&gt;nombre&lt;/font&gt;" style="ellipse;whiteSpace=wrap;html=1;fillColor=none;strokeColor=#FFFFFF;" parent="1" vertex="1">
          <mxGeometry x="733" y="80" width="80" height="40" as="geometry" />
        </mxCell>
        <mxCell id="xHarE6nuo0NC3B4JPIid-5" value="&lt;font color=&quot;#ffffff&quot;&gt;dirección&lt;/font&gt;" style="ellipse;whiteSpace=wrap;html=1;fillColor=none;strokeColor=#FFFFFF;" parent="1" vertex="1">
          <mxGeometry x="733" y="140" width="80" height="40" as="geometry" />
        </mxCell>
        <mxCell id="xHarE6nuo0NC3B4JPIid-6" value="&lt;font color=&quot;#ffffff&quot;&gt;teléfono&lt;/font&gt;" style="ellipse;whiteSpace=wrap;html=1;fillColor=none;strokeColor=#FFFFFF;" parent="1" vertex="1">
          <mxGeometry x="733" y="200" width="80" height="40" as="geometry" />
        </mxCell>
        <mxCell id="xHarE6nuo0NC3B4JPIid-9" value="" style="endArrow=none;html=1;rounded=0;strokeColor=#FFFFFF;entryX=0.5;entryY=1;entryDx=0;entryDy=0;exitX=0.5;exitY=0;exitDx=0;exitDy=0;" parent="1" source="xHarE6nuo0NC3B4JPIid-2" edge="1">
          <mxGeometry width="50" height="50" relative="1" as="geometry">
            <mxPoint x="503" y="280" as="sourcePoint" />
            <mxPoint x="693" y="80" as="targetPoint" />
          </mxGeometry>
        </mxCell>
        <mxCell id="xHarE6nuo0NC3B4JPIid-10" value="" style="endArrow=none;html=1;rounded=0;strokeColor=#FFFFFF;entryX=0;entryY=0.5;entryDx=0;entryDy=0;exitX=1;exitY=0.5;exitDx=0;exitDy=0;" parent="1" source="xHarE6nuo0NC3B4JPIid-2" target="xHarE6nuo0NC3B4JPIid-4" edge="1">
          <mxGeometry width="50" height="50" relative="1" as="geometry">
            <mxPoint x="643" y="130" as="sourcePoint" />
            <mxPoint x="703" y="90" as="targetPoint" />
          </mxGeometry>
        </mxCell>
        <mxCell id="xHarE6nuo0NC3B4JPIid-11" value="" style="endArrow=none;html=1;rounded=0;strokeColor=#FFFFFF;entryX=0;entryY=0.5;entryDx=0;entryDy=0;exitX=1;exitY=0.5;exitDx=0;exitDy=0;" parent="1" source="xHarE6nuo0NC3B4JPIid-2" target="xHarE6nuo0NC3B4JPIid-5" edge="1">
          <mxGeometry width="50" height="50" relative="1" as="geometry">
            <mxPoint x="783" y="350" as="sourcePoint" />
            <mxPoint x="863" y="290" as="targetPoint" />
          </mxGeometry>
        </mxCell>
        <mxCell id="xHarE6nuo0NC3B4JPIid-12" style="edgeStyle=orthogonalEdgeStyle;rounded=0;orthogonalLoop=1;jettySize=auto;html=1;entryX=1;entryY=0.5;entryDx=0;entryDy=0;" parent="1" source="xHarE6nuo0NC3B4JPIid-2" target="xHarE6nuo0NC3B4JPIid-2" edge="1">
          <mxGeometry relative="1" as="geometry" />
        </mxCell>
        <mxCell id="xHarE6nuo0NC3B4JPIid-13" value="" style="endArrow=none;html=1;rounded=0;strokeColor=#FFFFFF;entryX=0;entryY=0.5;entryDx=0;entryDy=0;exitX=1;exitY=0.5;exitDx=0;exitDy=0;" parent="1" source="xHarE6nuo0NC3B4JPIid-2" target="xHarE6nuo0NC3B4JPIid-6" edge="1">
          <mxGeometry width="50" height="50" relative="1" as="geometry">
            <mxPoint x="583" y="360" as="sourcePoint" />
            <mxPoint x="663" y="420" as="targetPoint" />
          </mxGeometry>
        </mxCell>
        <mxCell id="xHarE6nuo0NC3B4JPIid-14" value="&lt;font color=&quot;#ffffff&quot;&gt;coches&lt;/font&gt;" style="rounded=0;whiteSpace=wrap;html=1;fillColor=none;strokeColor=#FFFFFF;" parent="1" vertex="1">
          <mxGeometry x="1133" y="360" width="120" height="80" as="geometry" />
        </mxCell>
        <mxCell id="xHarE6nuo0NC3B4JPIid-15" value="&lt;font color=&quot;#ffffff&quot;&gt;color&lt;/font&gt;" style="ellipse;whiteSpace=wrap;html=1;fillColor=none;strokeColor=#FFFFFF;" parent="1" vertex="1">
          <mxGeometry x="1213" y="280" width="80" height="40" as="geometry" />
        </mxCell>
        <mxCell id="xHarE6nuo0NC3B4JPIid-16" value="" style="endArrow=none;html=1;rounded=0;entryX=0.5;entryY=1;entryDx=0;entryDy=0;strokeColor=#FFFFFF;" parent="1" edge="1">
          <mxGeometry width="50" height="50" relative="1" as="geometry">
            <mxPoint x="-500" y="360" as="sourcePoint" />
            <mxPoint x="-640" y="320" as="targetPoint" />
          </mxGeometry>
        </mxCell>
        <mxCell id="xHarE6nuo0NC3B4JPIid-17" value="&lt;font color=&quot;#ffffff&quot;&gt;proyectos&lt;/font&gt;" style="rounded=0;whiteSpace=wrap;html=1;fillColor=none;strokeColor=#FFFFFF;" parent="1" vertex="1">
          <mxGeometry x="-640" y="40" width="120" height="80" as="geometry" />
        </mxCell>
        <mxCell id="xHarE6nuo0NC3B4JPIid-19" value="&lt;font color=&quot;#ffffff&quot;&gt;ff&lt;/font&gt;" style="ellipse;whiteSpace=wrap;html=1;fillColor=none;strokeColor=#FFFFFF;" parent="1" vertex="1">
          <mxGeometry x="-640" y="240" width="80" height="40" as="geometry" />
        </mxCell>
        <mxCell id="xHarE6nuo0NC3B4JPIid-20" value="&lt;font color=&quot;#ffffff&quot;&gt;&lt;u&gt;id_empresa&lt;/u&gt;&lt;/font&gt;" style="ellipse;whiteSpace=wrap;html=1;fillColor=none;strokeColor=#FFFFFF;" parent="1" vertex="1">
          <mxGeometry x="-640" y="160" width="80" height="40" as="geometry" />
        </mxCell>
        <mxCell id="xHarE6nuo0NC3B4JPIid-21" value="&lt;font color=&quot;#ffffff&quot;&gt;modelo&lt;/font&gt;" style="ellipse;whiteSpace=wrap;html=1;fillColor=none;strokeColor=#FFFFFF;" parent="1" vertex="1">
          <mxGeometry x="1293" y="340" width="80" height="40" as="geometry" />
        </mxCell>
        <mxCell id="xHarE6nuo0NC3B4JPIid-22" value="&lt;font color=&quot;#ffffff&quot;&gt;marca&lt;/font&gt;" style="ellipse;whiteSpace=wrap;html=1;fillColor=none;strokeColor=#FFFFFF;" parent="1" vertex="1">
          <mxGeometry x="1293" y="420" width="80" height="40" as="geometry" />
        </mxCell>
        <mxCell id="xHarE6nuo0NC3B4JPIid-23" value="" style="endArrow=none;html=1;rounded=0;entryX=0.5;entryY=1;entryDx=0;entryDy=0;strokeColor=#FFFFFF;exitX=0.5;exitY=0;exitDx=0;exitDy=0;" parent="1" source="xHarE6nuo0NC3B4JPIid-14" target="xHarE6nuo0NC3B4JPIid-15" edge="1">
          <mxGeometry width="50" height="50" relative="1" as="geometry">
            <mxPoint x="1183" y="510" as="sourcePoint" />
            <mxPoint x="1043" y="470" as="targetPoint" />
          </mxGeometry>
        </mxCell>
        <mxCell id="xHarE6nuo0NC3B4JPIid-24" value="" style="endArrow=none;html=1;rounded=0;entryX=0;entryY=0.5;entryDx=0;entryDy=0;strokeColor=#FFFFFF;exitX=1;exitY=0.5;exitDx=0;exitDy=0;" parent="1" source="xHarE6nuo0NC3B4JPIid-14" target="xHarE6nuo0NC3B4JPIid-21" edge="1">
          <mxGeometry width="50" height="50" relative="1" as="geometry">
            <mxPoint x="1173" y="540" as="sourcePoint" />
            <mxPoint x="1033" y="500" as="targetPoint" />
          </mxGeometry>
        </mxCell>
        <mxCell id="xHarE6nuo0NC3B4JPIid-25" value="" style="endArrow=none;html=1;rounded=0;entryX=1;entryY=0.5;entryDx=0;entryDy=0;strokeColor=#FFFFFF;exitX=0;exitY=0.5;exitDx=0;exitDy=0;" parent="1" source="xHarE6nuo0NC3B4JPIid-22" target="xHarE6nuo0NC3B4JPIid-14" edge="1">
          <mxGeometry width="50" height="50" relative="1" as="geometry">
            <mxPoint x="1163" y="560" as="sourcePoint" />
            <mxPoint x="1023" y="520" as="targetPoint" />
          </mxGeometry>
        </mxCell>
        <mxCell id="xHarE6nuo0NC3B4JPIid-26" value="&lt;font color=&quot;#ffffff&quot;&gt;trabajadores&lt;/font&gt;" style="rounded=0;whiteSpace=wrap;html=1;fillColor=none;strokeColor=#FFFFFF;" parent="1" vertex="1">
          <mxGeometry x="213" y="360" width="120" height="80" as="geometry" />
        </mxCell>
        <mxCell id="9MMlaA8A-QYlj0_RRwK3-26" style="edgeStyle=orthogonalEdgeStyle;rounded=0;orthogonalLoop=1;jettySize=auto;html=1;exitX=0.5;exitY=0;exitDx=0;exitDy=0;" edge="1" parent="1" source="xHarE6nuo0NC3B4JPIid-27">
          <mxGeometry relative="1" as="geometry">
            <mxPoint x="173" y="470" as="targetPoint" />
          </mxGeometry>
        </mxCell>
        <mxCell id="xHarE6nuo0NC3B4JPIid-27" value="&lt;font color=&quot;#ffffff&quot;&gt;&lt;u&gt;dni&lt;/u&gt;&lt;/font&gt;" style="ellipse;whiteSpace=wrap;html=1;fillColor=none;strokeColor=#FFFFFF;" parent="1" vertex="1">
          <mxGeometry x="93" y="380" width="80" height="40" as="geometry" />
        </mxCell>
        <mxCell id="xHarE6nuo0NC3B4JPIid-28" value="&lt;div&gt;&lt;font color=&quot;#ffffff&quot;&gt;fecha_&lt;/font&gt;&lt;/div&gt;&lt;div&gt;&lt;font color=&quot;#ffffff&quot;&gt;nacimiento&lt;/font&gt;&lt;/div&gt;" style="ellipse;whiteSpace=wrap;html=1;fillColor=none;strokeColor=#FFFFFF;" parent="1" vertex="1">
          <mxGeometry x="373" y="420" width="80" height="40" as="geometry" />
        </mxCell>
        <mxCell id="xHarE6nuo0NC3B4JPIid-29" value="&lt;font color=&quot;#ffffff&quot;&gt;nombre_comp&lt;/font&gt;" style="ellipse;whiteSpace=wrap;html=1;fillColor=none;strokeColor=#FFFFFF;" parent="1" vertex="1">
          <mxGeometry x="233" y="480" width="80" height="40" as="geometry" />
        </mxCell>
        <mxCell id="xHarE6nuo0NC3B4JPIid-30" value="&lt;font color=&quot;#ffffff&quot;&gt;nombre&lt;/font&gt;" style="ellipse;whiteSpace=wrap;html=1;fillColor=none;strokeColor=#FFFFFF;" parent="1" vertex="1">
          <mxGeometry x="133" y="560" width="80" height="40" as="geometry" />
        </mxCell>
        <mxCell id="xHarE6nuo0NC3B4JPIid-31" value="&lt;font color=&quot;#ffffff&quot;&gt;apellido1&lt;/font&gt;" style="ellipse;whiteSpace=wrap;html=1;fillColor=none;strokeColor=#FFFFFF;" parent="1" vertex="1">
          <mxGeometry x="233" y="560" width="80" height="40" as="geometry" />
        </mxCell>
        <mxCell id="xHarE6nuo0NC3B4JPIid-32" value="&lt;font color=&quot;#ffffff&quot;&gt;apellido2&lt;/font&gt;" style="ellipse;whiteSpace=wrap;html=1;fillColor=none;strokeColor=#FFFFFF;" parent="1" vertex="1">
          <mxGeometry x="333" y="560" width="80" height="40" as="geometry" />
        </mxCell>
        <mxCell id="xHarE6nuo0NC3B4JPIid-33" value="" style="endArrow=none;dashed=1;html=1;rounded=0;strokeColor=#FFFFFF;" parent="1" edge="1">
          <mxGeometry width="50" height="50" relative="1" as="geometry">
            <mxPoint x="-610" y="430" as="sourcePoint" />
            <mxPoint x="-560" y="380" as="targetPoint" />
          </mxGeometry>
        </mxCell>
        <mxCell id="xHarE6nuo0NC3B4JPIid-35" value="" style="endArrow=none;html=1;rounded=0;entryX=0.5;entryY=1;entryDx=0;entryDy=0;strokeColor=#FFFFFF;exitX=0.5;exitY=0;exitDx=0;exitDy=0;" parent="1" source="xHarE6nuo0NC3B4JPIid-31" target="xHarE6nuo0NC3B4JPIid-29" edge="1">
          <mxGeometry width="50" height="50" relative="1" as="geometry">
            <mxPoint x="133" y="630" as="sourcePoint" />
            <mxPoint x="-7" y="590" as="targetPoint" />
          </mxGeometry>
        </mxCell>
        <mxCell id="xHarE6nuo0NC3B4JPIid-36" value="" style="endArrow=none;html=1;rounded=0;entryX=0.5;entryY=1;entryDx=0;entryDy=0;strokeColor=#FFFFFF;exitX=0.5;exitY=0;exitDx=0;exitDy=0;" parent="1" source="xHarE6nuo0NC3B4JPIid-30" target="xHarE6nuo0NC3B4JPIid-29" edge="1">
          <mxGeometry width="50" height="50" relative="1" as="geometry">
            <mxPoint x="173" y="690" as="sourcePoint" />
            <mxPoint x="33" y="650" as="targetPoint" />
          </mxGeometry>
        </mxCell>
        <mxCell id="xHarE6nuo0NC3B4JPIid-37" value="" style="endArrow=none;html=1;rounded=0;entryX=1;entryY=0.5;entryDx=0;entryDy=0;strokeColor=#FFFFFF;exitX=0;exitY=0.5;exitDx=0;exitDy=0;" parent="1" source="xHarE6nuo0NC3B4JPIid-26" target="xHarE6nuo0NC3B4JPIid-27" edge="1">
          <mxGeometry width="50" height="50" relative="1" as="geometry">
            <mxPoint x="3" y="490" as="sourcePoint" />
            <mxPoint x="-137" y="450" as="targetPoint" />
          </mxGeometry>
        </mxCell>
        <mxCell id="xHarE6nuo0NC3B4JPIid-38" value="" style="endArrow=none;html=1;rounded=0;entryX=0.5;entryY=0;entryDx=0;entryDy=0;strokeColor=#FFFFFF;exitX=0.5;exitY=1;exitDx=0;exitDy=0;" parent="1" source="xHarE6nuo0NC3B4JPIid-26" target="xHarE6nuo0NC3B4JPIid-29" edge="1">
          <mxGeometry width="50" height="50" relative="1" as="geometry">
            <mxPoint x="103" y="540" as="sourcePoint" />
            <mxPoint x="23" y="580" as="targetPoint" />
          </mxGeometry>
        </mxCell>
        <mxCell id="xHarE6nuo0NC3B4JPIid-39" value="" style="endArrow=none;html=1;rounded=0;entryX=0;entryY=0.5;entryDx=0;entryDy=0;strokeColor=#FFFFFF;exitX=1;exitY=0.5;exitDx=0;exitDy=0;" parent="1" source="xHarE6nuo0NC3B4JPIid-26" target="xHarE6nuo0NC3B4JPIid-28" edge="1">
          <mxGeometry width="50" height="50" relative="1" as="geometry">
            <mxPoint x="73" y="600" as="sourcePoint" />
            <mxPoint x="-7" y="640" as="targetPoint" />
          </mxGeometry>
        </mxCell>
        <mxCell id="xHarE6nuo0NC3B4JPIid-40" value="&lt;font color=&quot;#ffffff&quot;&gt;&lt;u&gt;bastidor&lt;/u&gt;&lt;/font&gt;" style="ellipse;whiteSpace=wrap;html=1;fillColor=none;strokeColor=#FFFFFF;" parent="1" vertex="1">
          <mxGeometry x="1213" y="480" width="80" height="40" as="geometry" />
        </mxCell>
        <mxCell id="xHarE6nuo0NC3B4JPIid-41" value="" style="endArrow=none;html=1;rounded=0;entryX=0.5;entryY=1;entryDx=0;entryDy=0;strokeColor=#FFFFFF;exitX=0.5;exitY=0;exitDx=0;exitDy=0;" parent="1" source="xHarE6nuo0NC3B4JPIid-40" target="xHarE6nuo0NC3B4JPIid-14" edge="1">
          <mxGeometry width="50" height="50" relative="1" as="geometry">
            <mxPoint x="1153" y="500" as="sourcePoint" />
            <mxPoint x="1213" y="460" as="targetPoint" />
          </mxGeometry>
        </mxCell>
        <mxCell id="xHarE6nuo0NC3B4JPIid-43" value="&lt;font color=&quot;#ffffff&quot;&gt;contrata&lt;/font&gt;" style="rhombus;whiteSpace=wrap;html=1;fillColor=none;strokeColor=#FFFFFF;" parent="1" vertex="1">
          <mxGeometry x="-640" y="480" width="80" height="40" as="geometry" />
        </mxCell>
        <mxCell id="xHarE6nuo0NC3B4JPIid-46" value="Text" style="text;html=1;strokeColor=none;fillColor=none;align=center;verticalAlign=middle;whiteSpace=wrap;rounded=0;" parent="1" vertex="1">
          <mxGeometry x="1213" y="410" width="60" height="30" as="geometry" />
        </mxCell>
        <mxCell id="xHarE6nuo0NC3B4JPIid-47" value="&lt;font color=&quot;#ffffff&quot;&gt;Text&lt;/font&gt;" style="text;html=1;strokeColor=none;fillColor=none;align=center;verticalAlign=middle;whiteSpace=wrap;rounded=0;" parent="1" vertex="1">
          <mxGeometry x="-630" y="540" width="60" height="30" as="geometry" />
        </mxCell>
        <mxCell id="xHarE6nuo0NC3B4JPIid-60" value="" style="edgeStyle=orthogonalEdgeStyle;rounded=0;orthogonalLoop=1;jettySize=auto;html=1;" parent="1" target="xHarE6nuo0NC3B4JPIid-30" edge="1">
          <mxGeometry relative="1" as="geometry">
            <mxPoint x="413" y="340" as="sourcePoint" />
          </mxGeometry>
        </mxCell>
        <mxCell id="9MMlaA8A-QYlj0_RRwK3-1" value="&lt;font color=&quot;#ffffff&quot;&gt;calle&lt;/font&gt;" style="ellipse;whiteSpace=wrap;html=1;fillColor=none;strokeColor=#FFFFFF;" vertex="1" parent="1">
          <mxGeometry x="853" y="100" width="80" height="40" as="geometry" />
        </mxCell>
        <mxCell id="9MMlaA8A-QYlj0_RRwK3-2" value="&lt;font color=&quot;#ffffff&quot;&gt;numero&lt;/font&gt;" style="ellipse;whiteSpace=wrap;html=1;fillColor=none;strokeColor=#FFFFFF;" vertex="1" parent="1">
          <mxGeometry x="853" y="180" width="80" height="40" as="geometry" />
        </mxCell>
        <mxCell id="9MMlaA8A-QYlj0_RRwK3-3" value="&lt;font color=&quot;#ffffff&quot;&gt;codigo_postal&lt;/font&gt;" style="ellipse;whiteSpace=wrap;html=1;fillColor=none;strokeColor=#FFFFFF;" vertex="1" parent="1">
          <mxGeometry x="653" y="240" width="80" height="40" as="geometry" />
        </mxCell>
        <mxCell id="9MMlaA8A-QYlj0_RRwK3-4" value="&lt;font color=&quot;#ffffff&quot;&gt;provincia&lt;/font&gt;" style="ellipse;whiteSpace=wrap;html=1;fillColor=none;strokeColor=#FFFFFF;" vertex="1" parent="1">
          <mxGeometry x="533" y="240" width="80" height="40" as="geometry" />
        </mxCell>
        <mxCell id="9MMlaA8A-QYlj0_RRwK3-5" value="" style="endArrow=none;html=1;rounded=0;strokeColor=#FFFFFF;entryX=0;entryY=0.5;entryDx=0;entryDy=0;exitX=1;exitY=0.5;exitDx=0;exitDy=0;" edge="1" parent="1" source="xHarE6nuo0NC3B4JPIid-5" target="9MMlaA8A-QYlj0_RRwK3-1">
          <mxGeometry width="50" height="50" relative="1" as="geometry">
            <mxPoint x="1023" y="100" as="sourcePoint" />
            <mxPoint x="1063" y="40" as="targetPoint" />
          </mxGeometry>
        </mxCell>
        <mxCell id="9MMlaA8A-QYlj0_RRwK3-6" value="" style="endArrow=none;html=1;rounded=0;strokeColor=#FFFFFF;entryX=0;entryY=0.5;entryDx=0;entryDy=0;exitX=1;exitY=0.5;exitDx=0;exitDy=0;" edge="1" parent="1" source="xHarE6nuo0NC3B4JPIid-5" target="9MMlaA8A-QYlj0_RRwK3-2">
          <mxGeometry width="50" height="50" relative="1" as="geometry">
            <mxPoint x="1043" y="220" as="sourcePoint" />
            <mxPoint x="1083" y="160" as="targetPoint" />
          </mxGeometry>
        </mxCell>
        <mxCell id="9MMlaA8A-QYlj0_RRwK3-8" value="&lt;font color=&quot;#ffffff&quot;&gt;&lt;u&gt;cif&lt;/u&gt;&lt;/font&gt;" style="ellipse;whiteSpace=wrap;html=1;fillColor=none;strokeColor=#FFFFFF;" vertex="1" parent="1">
          <mxGeometry x="653" y="40" width="80" height="40" as="geometry" />
        </mxCell>
        <mxCell id="9MMlaA8A-QYlj0_RRwK3-9" value="" style="endArrow=none;html=1;rounded=0;entryX=0.5;entryY=1;entryDx=0;entryDy=0;strokeColor=#FFFFFF;exitX=0.5;exitY=0;exitDx=0;exitDy=0;" edge="1" parent="1" source="9MMlaA8A-QYlj0_RRwK3-3" target="xHarE6nuo0NC3B4JPIid-2">
          <mxGeometry width="50" height="50" relative="1" as="geometry">
            <mxPoint x="743" y="360" as="sourcePoint" />
            <mxPoint x="603" y="320" as="targetPoint" />
          </mxGeometry>
        </mxCell>
        <mxCell id="9MMlaA8A-QYlj0_RRwK3-10" value="" style="endArrow=none;html=1;rounded=0;entryX=0.5;entryY=1;entryDx=0;entryDy=0;strokeColor=#FFFFFF;exitX=0.5;exitY=0;exitDx=0;exitDy=0;" edge="1" parent="1" source="9MMlaA8A-QYlj0_RRwK3-4" target="xHarE6nuo0NC3B4JPIid-2">
          <mxGeometry width="50" height="50" relative="1" as="geometry">
            <mxPoint x="483" y="330" as="sourcePoint" />
            <mxPoint x="343" y="290" as="targetPoint" />
          </mxGeometry>
        </mxCell>
        <mxCell id="9MMlaA8A-QYlj0_RRwK3-11" value="&lt;font color=&quot;#ffffff&quot;&gt;bastidor&lt;/font&gt;" style="ellipse;whiteSpace=wrap;html=1;fillColor=none;strokeColor=#FFFFFF;" vertex="1" parent="1">
          <mxGeometry x="1093" y="280" width="80" height="40" as="geometry" />
        </mxCell>
        <mxCell id="9MMlaA8A-QYlj0_RRwK3-12" value="&lt;font color=&quot;#ffffff&quot;&gt;kilometraje&lt;/font&gt;" style="ellipse;whiteSpace=wrap;html=1;fillColor=none;strokeColor=#FFFFFF;" vertex="1" parent="1">
          <mxGeometry x="983" y="340" width="80" height="40" as="geometry" />
        </mxCell>
        <mxCell id="9MMlaA8A-QYlj0_RRwK3-13" value="&lt;font color=&quot;#ffffff&quot;&gt;desperfectos&lt;/font&gt;" style="ellipse;whiteSpace=wrap;html=1;fillColor=none;strokeColor=#FFFFFF;" vertex="1" parent="1">
          <mxGeometry x="983" y="420" width="80" height="40" as="geometry" />
        </mxCell>
        <mxCell id="9MMlaA8A-QYlj0_RRwK3-14" value="&lt;font color=&quot;#ffffff&quot;&gt;comprado_a&lt;/font&gt;" style="ellipse;whiteSpace=wrap;html=1;fillColor=none;strokeColor=#FFFFFF;" vertex="1" parent="1">
          <mxGeometry x="1103" y="480" width="80" height="40" as="geometry" />
        </mxCell>
        <mxCell id="9MMlaA8A-QYlj0_RRwK3-15" value="" style="endArrow=none;html=1;rounded=0;entryX=1;entryY=0.5;entryDx=0;entryDy=0;strokeColor=#FFFFFF;exitX=0;exitY=0.5;exitDx=0;exitDy=0;" edge="1" parent="1" source="xHarE6nuo0NC3B4JPIid-14" target="9MMlaA8A-QYlj0_RRwK3-12">
          <mxGeometry width="50" height="50" relative="1" as="geometry">
            <mxPoint x="958" y="420" as="sourcePoint" />
            <mxPoint x="818" y="380" as="targetPoint" />
          </mxGeometry>
        </mxCell>
        <mxCell id="9MMlaA8A-QYlj0_RRwK3-16" value="" style="endArrow=none;html=1;rounded=0;entryX=1;entryY=0.5;entryDx=0;entryDy=0;strokeColor=#FFFFFF;exitX=0;exitY=0.5;exitDx=0;exitDy=0;" edge="1" parent="1" source="xHarE6nuo0NC3B4JPIid-14" target="9MMlaA8A-QYlj0_RRwK3-13">
          <mxGeometry width="50" height="50" relative="1" as="geometry">
            <mxPoint x="543" y="420" as="sourcePoint" />
            <mxPoint x="403" y="380" as="targetPoint" />
          </mxGeometry>
        </mxCell>
        <mxCell id="9MMlaA8A-QYlj0_RRwK3-17" value="" style="endArrow=none;html=1;rounded=0;entryX=0.5;entryY=1;entryDx=0;entryDy=0;strokeColor=#FFFFFF;exitX=0.5;exitY=0;exitDx=0;exitDy=0;" edge="1" parent="1" source="9MMlaA8A-QYlj0_RRwK3-14" target="xHarE6nuo0NC3B4JPIid-14">
          <mxGeometry width="50" height="50" relative="1" as="geometry">
            <mxPoint x="553" y="430" as="sourcePoint" />
            <mxPoint x="413" y="390" as="targetPoint" />
          </mxGeometry>
        </mxCell>
        <mxCell id="9MMlaA8A-QYlj0_RRwK3-18" value="" style="endArrow=none;html=1;rounded=0;entryX=0.5;entryY=0;entryDx=0;entryDy=0;strokeColor=#FFFFFF;exitX=0.5;exitY=1;exitDx=0;exitDy=0;" edge="1" parent="1" source="9MMlaA8A-QYlj0_RRwK3-11" target="xHarE6nuo0NC3B4JPIid-14">
          <mxGeometry width="50" height="50" relative="1" as="geometry">
            <mxPoint x="563" y="440" as="sourcePoint" />
            <mxPoint x="423" y="400" as="targetPoint" />
          </mxGeometry>
        </mxCell>
        <mxCell id="9MMlaA8A-QYlj0_RRwK3-19" value="&lt;div&gt;&lt;font color=&quot;#ffffff&quot;&gt;fecha_&lt;/font&gt;&lt;/div&gt;&lt;div&gt;&lt;font color=&quot;#ffffff&quot;&gt;contratacion&lt;/font&gt;&lt;/div&gt;" style="ellipse;whiteSpace=wrap;html=1;fillColor=none;strokeColor=#FFFFFF;" vertex="1" parent="1">
          <mxGeometry x="373" y="340" width="80" height="40" as="geometry" />
        </mxCell>
        <mxCell id="9MMlaA8A-QYlj0_RRwK3-20" value="&lt;font color=&quot;#ffffff&quot;&gt;salario_base&lt;/font&gt;" style="ellipse;whiteSpace=wrap;html=1;fillColor=none;strokeColor=#FFFFFF;" vertex="1" parent="1">
          <mxGeometry x="293" y="280" width="80" height="40" as="geometry" />
        </mxCell>
        <mxCell id="9MMlaA8A-QYlj0_RRwK3-21" value="&lt;font color=&quot;#ffffff&quot;&gt;comision&lt;/font&gt;" style="ellipse;whiteSpace=wrap;html=1;fillColor=none;strokeColor=#FFFFFF;" vertex="1" parent="1">
          <mxGeometry x="173" y="280" width="80" height="40" as="geometry" />
        </mxCell>
        <mxCell id="9MMlaA8A-QYlj0_RRwK3-22" value="" style="endArrow=none;html=1;rounded=0;entryX=0.5;entryY=1;entryDx=0;entryDy=0;strokeColor=#FFFFFF;exitX=0.5;exitY=0;exitDx=0;exitDy=0;" edge="1" parent="1" source="xHarE6nuo0NC3B4JPIid-26" target="9MMlaA8A-QYlj0_RRwK3-21">
          <mxGeometry width="50" height="50" relative="1" as="geometry">
            <mxPoint x="363" y="240" as="sourcePoint" />
            <mxPoint x="223" y="200" as="targetPoint" />
          </mxGeometry>
        </mxCell>
        <mxCell id="9MMlaA8A-QYlj0_RRwK3-23" value="" style="endArrow=none;html=1;rounded=0;entryX=0.5;entryY=1;entryDx=0;entryDy=0;strokeColor=#FFFFFF;exitX=0.5;exitY=0;exitDx=0;exitDy=0;" edge="1" parent="1" source="xHarE6nuo0NC3B4JPIid-32" target="xHarE6nuo0NC3B4JPIid-29">
          <mxGeometry width="50" height="50" relative="1" as="geometry">
            <mxPoint x="373" y="250" as="sourcePoint" />
            <mxPoint x="233" y="210" as="targetPoint" />
          </mxGeometry>
        </mxCell>
        <mxCell id="9MMlaA8A-QYlj0_RRwK3-24" value="" style="endArrow=none;html=1;rounded=0;entryX=1;entryY=0.5;entryDx=0;entryDy=0;strokeColor=#FFFFFF;exitX=0;exitY=0.5;exitDx=0;exitDy=0;" edge="1" parent="1" source="9MMlaA8A-QYlj0_RRwK3-19" target="xHarE6nuo0NC3B4JPIid-26">
          <mxGeometry width="50" height="50" relative="1" as="geometry">
            <mxPoint x="373" y="250" as="sourcePoint" />
            <mxPoint x="233" y="210" as="targetPoint" />
          </mxGeometry>
        </mxCell>
        <mxCell id="9MMlaA8A-QYlj0_RRwK3-25" value="" style="endArrow=none;html=1;rounded=0;entryX=0.5;entryY=1;entryDx=0;entryDy=0;strokeColor=#FFFFFF;exitX=0.5;exitY=0;exitDx=0;exitDy=0;" edge="1" parent="1" source="xHarE6nuo0NC3B4JPIid-26" target="9MMlaA8A-QYlj0_RRwK3-20">
          <mxGeometry width="50" height="50" relative="1" as="geometry">
            <mxPoint x="373" y="250" as="sourcePoint" />
            <mxPoint x="233" y="210" as="targetPoint" />
          </mxGeometry>
        </mxCell>
        <mxCell id="9MMlaA8A-QYlj0_RRwK3-27" value="&lt;font color=&quot;#ffffff&quot;&gt;compra&lt;/font&gt;" style="rhombus;whiteSpace=wrap;html=1;fillColor=none;strokeColor=#FFFFFF;" vertex="1" parent="1">
          <mxGeometry x="520" y="720" width="80" height="40" as="geometry" />
        </mxCell>
        <mxCell id="9MMlaA8A-QYlj0_RRwK3-28" value="" style="endArrow=none;html=1;rounded=0;entryX=1;entryY=0.5;entryDx=0;entryDy=0;strokeColor=#FFFFFF;exitX=0;exitY=0.5;exitDx=0;exitDy=0;" edge="1" parent="1" source="9MMlaA8A-QYlj0_RRwK3-27" target="xHarE6nuo0NC3B4JPIid-26">
          <mxGeometry width="50" height="50" relative="1" as="geometry">
            <mxPoint x="633" y="520" as="sourcePoint" />
            <mxPoint x="493" y="480" as="targetPoint" />
          </mxGeometry>
        </mxCell>
        <mxCell id="9MMlaA8A-QYlj0_RRwK3-29" value="" style="endArrow=none;html=1;rounded=0;entryX=0.5;entryY=0;entryDx=0;entryDy=0;strokeColor=#FFFFFF;exitX=0.5;exitY=1;exitDx=0;exitDy=0;" edge="1" parent="1" source="xHarE6nuo0NC3B4JPIid-2" target="9MMlaA8A-QYlj0_RRwK3-27">
          <mxGeometry width="50" height="50" relative="1" as="geometry">
            <mxPoint x="603" y="410" as="sourcePoint" />
            <mxPoint x="343" y="410" as="targetPoint" />
          </mxGeometry>
        </mxCell>
        <mxCell id="9MMlaA8A-QYlj0_RRwK3-30" value="" style="endArrow=none;html=1;rounded=0;entryX=1;entryY=0.5;entryDx=0;entryDy=0;strokeColor=#FFFFFF;" edge="1" parent="1" target="9MMlaA8A-QYlj0_RRwK3-27">
          <mxGeometry width="50" height="50" relative="1" as="geometry">
            <mxPoint x="1133" y="400" as="sourcePoint" />
            <mxPoint x="753" y="490" as="targetPoint" />
          </mxGeometry>
        </mxCell>
        <mxCell id="9MMlaA8A-QYlj0_RRwK3-31" value="&lt;div&gt;&lt;font color=&quot;#ffffff&quot;&gt;fecha_&lt;/font&gt;&lt;/div&gt;&lt;div&gt;&lt;font color=&quot;#ffffff&quot;&gt;compra&lt;/font&gt;&lt;/div&gt;" style="ellipse;whiteSpace=wrap;html=1;fillColor=none;strokeColor=#FFFFFF;" vertex="1" parent="1">
          <mxGeometry x="580" y="780" width="80" height="40" as="geometry" />
        </mxCell>
        <mxCell id="9MMlaA8A-QYlj0_RRwK3-32" value="&lt;font color=&quot;#ffffff&quot;&gt;&lt;u&gt;id_compra&lt;/u&gt;&lt;/font&gt;" style="ellipse;whiteSpace=wrap;html=1;fillColor=none;strokeColor=#FFFFFF;" vertex="1" parent="1">
          <mxGeometry x="460" y="780" width="80" height="40" as="geometry" />
        </mxCell>
        <mxCell id="9MMlaA8A-QYlj0_RRwK3-35" value="" style="endArrow=none;html=1;rounded=0;entryX=0;entryY=1;entryDx=0;entryDy=0;strokeColor=#FFFFFF;exitX=0.5;exitY=0;exitDx=0;exitDy=0;" edge="1" parent="1" source="9MMlaA8A-QYlj0_RRwK3-32" target="9MMlaA8A-QYlj0_RRwK3-27">
          <mxGeometry width="50" height="50" relative="1" as="geometry">
            <mxPoint x="470" y="860" as="sourcePoint" />
            <mxPoint x="330" y="820" as="targetPoint" />
          </mxGeometry>
        </mxCell>
        <mxCell id="9MMlaA8A-QYlj0_RRwK3-36" value="" style="endArrow=none;html=1;rounded=0;entryX=1;entryY=1;entryDx=0;entryDy=0;strokeColor=#FFFFFF;exitX=0.5;exitY=0;exitDx=0;exitDy=0;" edge="1" parent="1" source="9MMlaA8A-QYlj0_RRwK3-31" target="9MMlaA8A-QYlj0_RRwK3-27">
          <mxGeometry width="50" height="50" relative="1" as="geometry">
            <mxPoint x="480" y="870" as="sourcePoint" />
            <mxPoint x="340" y="830" as="targetPoint" />
          </mxGeometry>
        </mxCell>
        <mxCell id="9MMlaA8A-QYlj0_RRwK3-37" value="&lt;font color=&quot;#ffffff&quot;&gt;reparaciones&lt;/font&gt;" style="ellipse;whiteSpace=wrap;html=1;fillColor=none;strokeColor=#FFFFFF;" vertex="1" parent="1">
          <mxGeometry x="520" y="860" width="80" height="40" as="geometry" />
        </mxCell>
        <mxCell id="9MMlaA8A-QYlj0_RRwK3-38" value="&lt;font color=&quot;#ffffff&quot;&gt;realizador&lt;/font&gt;" style="ellipse;whiteSpace=wrap;html=1;fillColor=none;strokeColor=#FFFFFF;" vertex="1" parent="1">
          <mxGeometry x="460" y="940" width="80" height="40" as="geometry" />
        </mxCell>
        <mxCell id="9MMlaA8A-QYlj0_RRwK3-39" value="&lt;font color=&quot;#ffffff&quot;&gt;precio&lt;/font&gt;" style="ellipse;whiteSpace=wrap;html=1;fillColor=none;strokeColor=#FFFFFF;" vertex="1" parent="1">
          <mxGeometry x="580" y="940" width="80" height="40" as="geometry" />
        </mxCell>
        <mxCell id="9MMlaA8A-QYlj0_RRwK3-40" value="" style="endArrow=none;html=1;rounded=0;entryX=0.5;entryY=1;entryDx=0;entryDy=0;strokeColor=#FFFFFF;exitX=0.5;exitY=0;exitDx=0;exitDy=0;" edge="1" parent="1" source="9MMlaA8A-QYlj0_RRwK3-37" target="9MMlaA8A-QYlj0_RRwK3-27">
          <mxGeometry width="50" height="50" relative="1" as="geometry">
            <mxPoint x="510" y="890" as="sourcePoint" />
            <mxPoint x="370" y="850" as="targetPoint" />
          </mxGeometry>
        </mxCell>
        <mxCell id="9MMlaA8A-QYlj0_RRwK3-41" value="" style="endArrow=none;html=1;rounded=0;entryX=0.5;entryY=1;entryDx=0;entryDy=0;strokeColor=#FFFFFF;exitX=0.5;exitY=0;exitDx=0;exitDy=0;" edge="1" parent="1" source="9MMlaA8A-QYlj0_RRwK3-39" target="9MMlaA8A-QYlj0_RRwK3-37">
          <mxGeometry width="50" height="50" relative="1" as="geometry">
            <mxPoint x="750" y="920" as="sourcePoint" />
            <mxPoint x="750" y="820" as="targetPoint" />
          </mxGeometry>
        </mxCell>
        <mxCell id="9MMlaA8A-QYlj0_RRwK3-42" value="" style="endArrow=none;html=1;rounded=0;entryX=0.5;entryY=1;entryDx=0;entryDy=0;strokeColor=#FFFFFF;exitX=0.5;exitY=0;exitDx=0;exitDy=0;" edge="1" parent="1" source="9MMlaA8A-QYlj0_RRwK3-38" target="9MMlaA8A-QYlj0_RRwK3-37">
          <mxGeometry width="50" height="50" relative="1" as="geometry">
            <mxPoint x="760" y="930" as="sourcePoint" />
            <mxPoint x="760" y="830" as="targetPoint" />
          </mxGeometry>
        </mxCell>
        <mxCell id="9MMlaA8A-QYlj0_RRwK3-43" value="&lt;font color=&quot;#ffffff&quot;&gt;venta&lt;/font&gt;" style="rhombus;whiteSpace=wrap;html=1;fillColor=none;strokeColor=#FFFFFF;" vertex="1" parent="1">
          <mxGeometry x="843" y="720" width="80" height="40" as="geometry" />
        </mxCell>
        <mxCell id="9MMlaA8A-QYlj0_RRwK3-44" value="&lt;div&gt;&lt;font color=&quot;#ffffff&quot;&gt;fecha_&lt;/font&gt;&lt;/div&gt;&lt;font color=&quot;#ffffff&quot;&gt;venta&lt;/font&gt;" style="ellipse;whiteSpace=wrap;html=1;fillColor=none;strokeColor=#FFFFFF;" vertex="1" parent="1">
          <mxGeometry x="903" y="780" width="80" height="40" as="geometry" />
        </mxCell>
        <mxCell id="9MMlaA8A-QYlj0_RRwK3-45" value="&lt;font color=&quot;#ffffff&quot;&gt;&lt;u&gt;id_venta&lt;/u&gt;&lt;/font&gt;" style="ellipse;whiteSpace=wrap;html=1;fillColor=none;strokeColor=#FFFFFF;" vertex="1" parent="1">
          <mxGeometry x="783" y="780" width="80" height="40" as="geometry" />
        </mxCell>
        <mxCell id="9MMlaA8A-QYlj0_RRwK3-46" value="" style="endArrow=none;html=1;rounded=0;entryX=0;entryY=1;entryDx=0;entryDy=0;strokeColor=#FFFFFF;exitX=0.5;exitY=0;exitDx=0;exitDy=0;" edge="1" parent="1" source="9MMlaA8A-QYlj0_RRwK3-45" target="9MMlaA8A-QYlj0_RRwK3-43">
          <mxGeometry width="50" height="50" relative="1" as="geometry">
            <mxPoint x="793" y="860" as="sourcePoint" />
            <mxPoint x="653" y="820" as="targetPoint" />
          </mxGeometry>
        </mxCell>
        <mxCell id="9MMlaA8A-QYlj0_RRwK3-47" value="" style="endArrow=none;html=1;rounded=0;entryX=1;entryY=1;entryDx=0;entryDy=0;strokeColor=#FFFFFF;exitX=0.5;exitY=0;exitDx=0;exitDy=0;" edge="1" parent="1" source="9MMlaA8A-QYlj0_RRwK3-44" target="9MMlaA8A-QYlj0_RRwK3-43">
          <mxGeometry width="50" height="50" relative="1" as="geometry">
            <mxPoint x="803" y="870" as="sourcePoint" />
            <mxPoint x="663" y="830" as="targetPoint" />
          </mxGeometry>
        </mxCell>
        <mxCell id="9MMlaA8A-QYlj0_RRwK3-48" value="&lt;font color=&quot;#ffffff&quot;&gt;precio&lt;/font&gt;" style="ellipse;whiteSpace=wrap;html=1;fillColor=none;strokeColor=#FFFFFF;" vertex="1" parent="1">
          <mxGeometry x="843" y="860" width="80" height="40" as="geometry" />
        </mxCell>
        <mxCell id="9MMlaA8A-QYlj0_RRwK3-51" value="" style="endArrow=none;html=1;rounded=0;entryX=0.5;entryY=1;entryDx=0;entryDy=0;strokeColor=#FFFFFF;exitX=0.5;exitY=0;exitDx=0;exitDy=0;" edge="1" parent="1" source="9MMlaA8A-QYlj0_RRwK3-48" target="9MMlaA8A-QYlj0_RRwK3-43">
          <mxGeometry width="50" height="50" relative="1" as="geometry">
            <mxPoint x="833" y="890" as="sourcePoint" />
            <mxPoint x="693" y="850" as="targetPoint" />
          </mxGeometry>
        </mxCell>
        <mxCell id="9MMlaA8A-QYlj0_RRwK3-52" value="" style="endArrow=none;html=1;rounded=0;entryX=1;entryY=0.5;entryDx=0;entryDy=0;strokeColor=#FFFFFF;" edge="1" parent="1" target="9MMlaA8A-QYlj0_RRwK3-43">
          <mxGeometry width="50" height="50" relative="1" as="geometry">
            <mxPoint x="1133" y="400" as="sourcePoint" />
            <mxPoint x="1003" y="540" as="targetPoint" />
          </mxGeometry>
        </mxCell>
        <mxCell id="9MMlaA8A-QYlj0_RRwK3-53" value="" style="endArrow=none;html=1;rounded=0;entryX=0.5;entryY=0;entryDx=0;entryDy=0;strokeColor=#FFFFFF;exitX=0.5;exitY=1;exitDx=0;exitDy=0;" edge="1" parent="1" source="xHarE6nuo0NC3B4JPIid-2" target="9MMlaA8A-QYlj0_RRwK3-43">
          <mxGeometry width="50" height="50" relative="1" as="geometry">
            <mxPoint x="753" y="660" as="sourcePoint" />
            <mxPoint x="1013" y="550" as="targetPoint" />
          </mxGeometry>
        </mxCell>
        <mxCell id="9MMlaA8A-QYlj0_RRwK3-54" value="" style="endArrow=none;html=1;rounded=0;entryX=0;entryY=0.5;entryDx=0;entryDy=0;strokeColor=#FFFFFF;exitX=1;exitY=0.5;exitDx=0;exitDy=0;" edge="1" parent="1" source="xHarE6nuo0NC3B4JPIid-26" target="9MMlaA8A-QYlj0_RRwK3-43">
          <mxGeometry width="50" height="50" relative="1" as="geometry">
            <mxPoint x="943" y="470" as="sourcePoint" />
            <mxPoint x="1123" y="710" as="targetPoint" />
          </mxGeometry>
        </mxCell>
      </root>
    </mxGraphModel>
  </diagram>
</mxfile>
